<?xml version="1.0" encoding="UTF-8" standalone="no"?>
<svg xmlns:rdf="http://www.w3.org/1999/02/22-rdf-syntax-ns#" xmlns="http://www.w3.org/2000/svg" height="28.222mm" width="114.44mm" version="1.1" xmlns:cc="http://creativecommons.org/ns#" xmlns:dc="http://purl.org/dc/elements/1.1/" viewBox="0 0 405.48627 100.00001">
<metadata>
<rdf:RDF>
<cc:Work rdf:about="">
<dc:format>image/svg+xml</dc:format>
<dc:type rdf:resource="http://purl.org/dc/dcmitype/StillImage"/>
<dc:title/>
</cc:Work>
</rdf:RDF>
</metadata>
<g transform="translate(-81.538 -340.2)" fill="#fff">
<g stroke-width="0">
<rect rx="2" ry="2" height="12.5" width="22.5" y="384.5" x="81.538"/>
<rect transform="matrix(-.52644 -.85021 .66038 -.75093 0 0)" rx="1.8149" ry="1.7242" height="6.4658" width="22.686" y="-126.28" x="-349.08"/>
</g>
<g>
<g stroke-width="0">
<rect rx="2" ry="2" height="100" width="40" y="340.2" x="156.54"/>
<rect rx="2" ry="2" height="100" width="20" y="340.2" x="129.04"/>
<rect rx="2" ry="2" height="100" width="10" y="340.2" x="111.54"/>
</g>
<g transform="translate(73.981 300.18)">
<path d="m169.57 46.126c-2.64-0.935-5.665-1.375-8.195-1.375-6.93 0-12.32 3.63-12.32 10.45 0 11.935 16.5 9.57 16.5 18.15 0 4.51-4.4 6.27-7.535 6.27-2.805 0-6.105-1.1-7.975-1.87l-0.55 5.115c2.53 0.825 5.17 1.595 7.865 1.595 7.7 0 14.025-3.245 14.025-11.44 0-12.65-16.5-10.945-16.5-18.315 0-4.015 3.63-5.115 6.71-5.115 2.86 0 4.4 0.495 7.205 1.595l0.77-5.06z"/>
<path d="m186.51 83.801h5.5v-33.55h11.935v-4.84h-29.37v4.84h11.935v33.55z"/>
<path d="m209.15 83.801h5.5v-17.05h3.3c2.915 0 4.73 0 6.435 3.74l5.885 13.31h6.27l-7.26-15.29c-1.21-2.365-2.035-3.19-3.74-3.85v-0.11c4.455-0.77 7.92-4.07 7.92-8.745 0-9.185-7.315-10.395-14.905-10.395h-9.405v38.39zm5.5-33.55h5.28c5.06 0 7.7 2.2 7.7 5.665 0 3.685-3.08 5.995-8.305 5.995h-4.675v-11.66z"/>
<path d="m243.27 83.801h21.505v-4.84h-16.005v-12.65h14.575v-4.84h-14.575v-11.22h16.005v-4.84h-21.505v38.39z"/>
<path d="m273.45 83.801h5.5v-31.57h0.11l17.38 31.57h7.04v-38.39h-5.5v30.91h-0.11l-16.94-30.91h-7.48v38.39z"/>
<path d="m342.74 46.676c-3.19-1.1-5.665-1.925-11.275-1.925-11.715 0-20.295 7.865-20.295 19.69 0 12.21 8.085 20.02 20.24 20.02 5.995 0 9.625-0.99 11.715-1.705v-19.965h-13.585v4.51h8.085v11.66c-1.375 0.275-2.365 0.66-6.16 0.66-7.975 0-14.465-5.995-14.465-15.015 0-8.58 5.885-15.015 14.74-15.015 4.95 0 7.865 0.88 10.56 2.64l0.44-5.555z"/>
<path d="m360.43 83.801h5.5v-33.55h11.935v-4.84h-29.37v4.84h11.935v33.55z"/>
<path d="m383.67 83.801h5.5v-17.49h18.37v17.49h5.5v-38.39h-5.5v16.06h-18.37v-16.06h-5.5v38.39z"/>
</g>
<g transform="translate(73.726 353.24)">
<path d="m151.31 83.801h21.56v-4.84h-16.06v-33.55h-5.5v38.39z"/>
<path d="m179.14 83.801h21.505v-4.84h-16.005v-12.65h14.575v-4.84h-14.575v-11.22h16.005v-4.84h-21.505v38.39z"/>
<path d="m240.84 45.411h-5.775l-12.155 33.55h-0.11l-11.825-33.55h-6.16l14.465 38.39h6.875l14.685-38.39z"/>
<path d="m246.39 83.801h21.505v-4.84h-16.005v-12.65h14.575v-4.84h-14.575v-11.22h16.005v-4.84h-21.505v38.39z"/>
<path d="m276.57 83.801h21.56v-4.84h-16.06v-33.55h-5.5v38.39z"/>
</g>
</g>
</g>
</svg>
